<?xml version="1.0" encoding="UTF-8"?>
<svg version="1.1" xmlns="http://www.w3.org/2000/svg" width="1600" height="253">
<path d="M0 0 C528 0 1056 0 1600 0 C1600 83.49 1600 166.98 1600 253 C1072 253 544 253 0 253 C0 169.51 0 86.02 0 0 Z " fill="#F6F6F6" transform="translate(0,0)"/>
<path d="M0 0 C196.68 0 393.36 0 596 0 C596 83.49 596 166.98 596 253 C345.2 253 94.4 253 -164 253 C-164 252.67 -164 252.34 -164 252 C-163.175 251.814375 -162.35 251.62875 -161.5 251.4375 C-150.3348376 246.8518083 -146.47809175 237.00357015 -141.625 226.75 C-140.87573178 225.20331921 -140.12433375 223.65766844 -139.37084961 222.11303711 C-137.89763062 219.09173229 -136.43109018 216.06734636 -134.96923828 213.04052734 C-132.60228719 208.16006254 -130.11614697 203.34770761 -127.5625 198.5625 C-127.17868164 197.8398999 -126.79486328 197.1172998 -126.39941406 196.37280273 C-125.64955116 194.96335012 -124.89844082 193.55456036 -124.14599609 192.14648438 C-117.58238083 179.85264002 -111.17994347 167.49084436 -105 155 C-103.669346 152.31116122 -102.33647874 149.62344878 -101 146.9375 C-100.66911377 146.27250488 -100.33822754 145.60750977 -99.99731445 144.92236328 C-97.76641198 140.46491024 -95.43859979 136.06891068 -93.0625 131.6875 C-90.0403656 126.11113639 -87.29435019 120.44031951 -84.625 114.6875 C-81.30005876 107.5320078 -77.64711611 100.65242899 -73.74633789 93.79663086 C-69.382837 86.05378131 -65.64306971 78.04176381 -61.92626953 69.97363281 C-61.08692124 68.18520593 -60.20033496 66.41913794 -59.30859375 64.65625 C-57.89468247 61.96330872 -57.89468247 61.96330872 -57 58.75 C-56 56 -56 56 -53 54 C-52.01 54 -51.02 54 -50 54 C-49.67 53.01 -49.34 52.02 -49 51 C-48.91363281 51.88042969 -48.82726562 52.76085938 -48.73828125 53.66796875 C-48.16005993 61.06703178 -48.16005993 61.06703178 -44.5625 67.25 C-41.26384589 69.50273939 -38.67177404 70.12267788 -34.76953125 70.31640625 C-33.96708984 70.35830078 -33.16464844 70.40019531 -32.33789062 70.44335938 C-31.50451172 70.48267578 -30.67113281 70.52199219 -29.8125 70.5625 C-28.96751953 70.60568359 -28.12253906 70.64886719 -27.25195312 70.69335938 C-25.16815567 70.79931518 -23.08409897 70.9001502 -21 71 C-20.99413376 72.00652115 -20.98826752 73.0130423 -20.98222351 74.05006409 C-20.92468513 83.59632043 -20.85176508 93.14235576 -20.76428509 102.68838596 C-20.71980559 107.59456765 -20.68050187 112.50067057 -20.65356445 117.40698242 C-20.6273055 122.15339957 -20.58674875 126.89950982 -20.53681374 131.64573479 C-20.52029617 133.44471315 -20.50868887 135.2437444 -20.50238609 137.04278755 C-20.44563922 151.76929758 -19.29795841 165.4351665 -13 179 C-12.525625 180.093125 -12.05125 181.18625 -11.5625 182.3125 C-6.88343511 190.36049161 1.8817738 195.88100355 10.69140625 198.4765625 C18.35062236 200.21316987 26.18466424 200.2195319 34 200 C34.8971875 199.99484375 35.794375 199.9896875 36.71875 199.984375 C45.36289699 199.63662196 54.15919107 196.52512514 60.1875 190.0625 C63.73394207 184.07023581 63.10336284 179.19148572 61.47265625 172.72265625 C61.31667969 172.15417969 61.16070313 171.58570313 61 171 C60.34 171 59.68 171 59 171 C59 170.34 59 169.68 59 169 C51.54530821 166.51510274 45.92953319 166.10250577 38.5625 169 C32.50813085 171.3596085 27.36908944 172.27276712 21.1875 169.9375 C15.67706704 165.05683081 14.64097432 160.04755593 14 153 C13.87704446 150.18667075 13.87275769 147.3801093 13.88647461 144.56445312 C13.88632858 143.76349213 13.88618256 142.96253113 13.8860321 142.13729858 C13.8867227 139.51858711 13.89447471 136.89994888 13.90234375 134.28125 C13.90421097 132.45422403 13.90563344 130.62719755 13.90663147 128.8001709 C13.91043274 124.01296585 13.92024242 119.22579159 13.93133545 114.43859863 C13.94160116 109.54500749 13.94614011 104.65141133 13.95117188 99.7578125 C13.96186701 90.17186154 13.97891447 80.58593334 14 71 C14.8470752 70.98541748 15.69415039 70.97083496 16.56689453 70.95581055 C19.73181934 70.89448823 22.89611504 70.82028648 26.06054688 70.73754883 C27.4259925 70.70444614 28.79157013 70.67636914 30.15722656 70.65356445 C32.12853224 70.61975009 34.09946191 70.56591714 36.0703125 70.51171875 C37.25383301 70.48553467 38.43735352 70.45935059 39.65673828 70.43237305 C44.7496267 69.77372653 47.98212411 68.15180693 51.375 64.3125 C53.49783872 59.98517492 53.53204782 57.78843042 53 53 C51.71815438 50.25167846 51.71815438 50.25167846 50 48 C49.566875 46.88625 49.566875 46.88625 49.125 45.75 C48.13397278 43.78032018 48.13397278 43.78032018 45.85668945 43.41040039 C42.61215729 42.94428138 39.44467064 42.78463742 36.16796875 42.68359375 C34.22954102 42.62075195 34.22954102 42.62075195 32.25195312 42.55664062 C30.89713808 42.51683648 29.54232033 42.47712409 28.1875 42.4375 C26.81313895 42.39426277 25.43878976 42.35064688 24.06445312 42.30664062 C20.70973331 42.2007021 17.3549414 42.09862811 14 42 C13.97812622 40.73724243 13.97812622 40.73724243 13.95581055 39.44897461 C13.89440846 36.2970731 13.82019269 33.14579539 13.73754883 29.99438477 C13.70449066 28.63577457 13.67640039 27.27703334 13.65356445 25.91821289 C13.65358513 15.50537062 13.65358513 15.50537062 10 6 C6.78981574 3.47283367 3.65908299 1.82954149 0 0 Z " fill="#F6F6F6" transform="translate(1004,0)"/>
<path d="M0 0 C1.77934433 -0.00412399 1.77934433 -0.00412399 3.59463501 -0.0083313 C4.88216675 -0.00114075 6.16969849 0.0060498 7.49624634 0.01345825 C8.87642407 0.01402287 10.2566024 0.01370482 11.63677979 0.01257324 C15.37189556 0.0120007 19.10688222 0.02373895 22.84196806 0.03772116 C26.74972086 0.05024502 30.6574768 0.05140032 34.56524658 0.05377197 C41.9599292 0.05998188 49.35455251 0.07638606 56.74920905 0.09647095 C65.16997769 0.11884519 73.5907492 0.12982722 82.01154017 0.13986182 C99.32890489 0.16075273 116.64621192 0.19591918 133.96353149 0.24050903 C134.03361616 24.24059658 134.08651705 48.24066878 134.11896801 72.24083805 C134.13443611 83.38456201 134.15552462 94.52822238 134.18984985 105.67190552 C134.21975386 115.3848684 134.23910691 125.09778523 134.24579698 134.81079286 C134.24970752 139.95363754 134.2588968 145.09635046 134.28072166 150.23915291 C134.30110255 155.08098037 134.30736202 159.92262194 134.30285454 164.76448822 C134.30367902 166.54020892 134.3096351 168.31593592 134.32114792 170.09161949 C134.33611725 172.51977736 134.33246915 174.94723731 134.32429504 177.37541199 C134.33303357 178.07484753 134.34177209 178.77428308 134.35077542 179.49491364 C134.29715321 185.40520247 132.83453081 189.93294321 129.08853149 194.55300903 C123.83075508 198.72830207 118.46142982 198.8811469 111.96353149 198.24050903 C106.064268 196.49974276 103.45740912 194.07028105 99.96353149 189.24050903 C98.41601444 186.14547493 98.81047009 182.87449807 98.80581665 179.4770813 C98.80073593 178.67515854 98.79565521 177.87323578 98.79042053 177.04701233 C98.77970335 175.30095583 98.77108848 173.55488548 98.7643013 171.80880928 C98.75251075 169.03734824 98.73305305 166.26604293 98.71118164 163.49464417 C98.64960248 155.61286685 98.59570176 147.73110193 98.56216431 139.84915161 C98.54110298 135.02914507 98.50569877 130.20941677 98.46140671 125.38957024 C98.44732571 123.55936927 98.43854229 121.72911901 98.43535233 119.89886665 C98.40828882 105.84593628 97.76573855 91.51784863 88.24868774 80.20144653 C80.27811511 72.54056895 71.02325882 70.61174903 60.30264282 70.77420044 C47.17586354 71.34372363 35.89518308 77.199793 26.72915649 86.51004028 C16.75789108 98.67583633 15.67600109 112.0261824 15.68913651 127.18930817 C15.69011264 129.67868257 15.67703612 132.16763797 15.66015625 134.6569519 C15.61418678 141.72676501 15.58925944 148.79652776 15.58267212 155.8664856 C15.57765272 160.20945678 15.55339632 164.55197923 15.51734543 168.89479828 C15.50757178 170.54213516 15.50520217 172.18953388 15.51051712 173.83689117 C15.51760343 176.13891125 15.50028021 178.43959209 15.47769165 180.7414856 C15.47484161 182.04813171 15.47199158 183.35477783 15.46905518 184.70101929 C14.87652386 188.84970427 13.57209041 190.99872993 10.96353149 194.24050903 C5.20251607 198.3153736 -0.14289492 198.96561085 -7.03646851 198.24050903 C-11.70496354 196.84870898 -14.43403019 194.99741871 -17.47396851 191.17800903 C-19.89068945 186.63457366 -20.16500154 183.4075572 -20.1769104 178.30767822 C-20.17988152 177.59810467 -20.18285264 176.88853111 -20.1859138 176.15745533 C-20.19460279 173.77383245 -20.19610921 171.39025978 -20.19760132 169.00662231 C-20.20222931 167.30002739 -20.20725394 165.5934335 -20.21264648 163.88684082 C-20.2257733 159.24633527 -20.23221585 154.60584419 -20.23665714 149.96532297 C-20.23958708 147.06718024 -20.24369171 144.16904147 -20.24816132 141.27090073 C-20.26183625 132.20626981 -20.27150324 123.14164793 -20.27536321 114.07700741 C-20.27984577 103.60741679 -20.29740287 93.13795661 -20.3263638 82.66840565 C-20.347965 74.57915927 -20.35806663 66.48994963 -20.35940433 58.4006747 C-20.36045337 53.56758352 -20.36638232 48.73461496 -20.38422394 43.90155411 C-20.40067789 39.35597689 -20.40287319 34.81061481 -20.39408493 30.26501846 C-20.39331315 28.5965009 -20.39767581 26.9279719 -20.40754318 25.25948334 C-20.42022343 22.9818339 -20.41440782 20.704951 -20.40396118 18.42730713 C-20.40616102 16.51536151 -20.40616102 16.51536151 -20.4084053 14.56479073 C-19.87618917 9.80797088 -18.15043424 7.2942604 -14.72396851 4.05300903 C-10.0184385 0.87951205 -5.61590909 -0.01008242 0 0 Z " fill="#65D8C7" transform="translate(104,7)"/>
<path d="M0 0 C1.77934433 -0.00412399 1.77934433 -0.00412399 3.59463501 -0.0083313 C4.88216675 -0.00114075 6.16969849 0.0060498 7.49624634 0.01345825 C8.87642407 0.01402287 10.2566024 0.01370482 11.63677979 0.01257324 C15.37189556 0.0120007 19.10688222 0.02373895 22.84196806 0.03772116 C26.74972086 0.05024502 30.6574768 0.05140032 34.56524658 0.05377197 C41.9599292 0.05998188 49.35455251 0.07638606 56.74920905 0.09647095 C65.16997769 0.11884519 73.5907492 0.12982722 82.01154017 0.13986182 C99.32890489 0.16075273 116.64621192 0.19591918 133.96353149 0.24050903 C134.03361616 24.24059658 134.08651705 48.24066878 134.11896801 72.24083805 C134.13443611 83.38456201 134.15552462 94.52822238 134.18984985 105.67190552 C134.21975386 115.3848684 134.23910691 125.09778523 134.24579698 134.81079286 C134.24970752 139.95363754 134.2588968 145.09635046 134.28072166 150.23915291 C134.30110255 155.08098037 134.30736202 159.92262194 134.30285454 164.76448822 C134.30367902 166.54020892 134.3096351 168.31593592 134.32114792 170.09161949 C134.33611725 172.51977736 134.33246915 174.94723731 134.32429504 177.37541199 C134.33303357 178.07484753 134.34177209 178.77428308 134.35077542 179.49491364 C134.29715321 185.40520247 132.83453081 189.93294321 129.08853149 194.55300903 C123.83075508 198.72830207 118.46142982 198.8811469 111.96353149 198.24050903 C106.064268 196.49974276 103.45740912 194.07028105 99.96353149 189.24050903 C98.41601444 186.14547493 98.81047009 182.87449807 98.80581665 179.4770813 C98.80073593 178.67515854 98.79565521 177.87323578 98.79042053 177.04701233 C98.77970335 175.30095583 98.77108848 173.55488548 98.7643013 171.80880928 C98.75251075 169.03734824 98.73305305 166.26604293 98.71118164 163.49464417 C98.64960248 155.61286685 98.59570176 147.73110193 98.56216431 139.84915161 C98.54110298 135.02914507 98.50569877 130.20941677 98.46140671 125.38957024 C98.44732571 123.55936927 98.43854229 121.72911901 98.43535233 119.89886665 C98.40828882 105.84593628 97.76573855 91.51784863 88.24868774 80.20144653 C80.27811511 72.54056895 71.02325882 70.61174903 60.30264282 70.77420044 C47.17586354 71.34372363 35.89518308 77.199793 26.72915649 86.51004028 C16.75789108 98.67583633 15.67600109 112.0261824 15.68913651 127.18930817 C15.69011264 129.67868257 15.67703612 132.16763797 15.66015625 134.6569519 C15.61418678 141.72676501 15.58925944 148.79652776 15.58267212 155.8664856 C15.57765272 160.20945678 15.55339632 164.55197923 15.51734543 168.89479828 C15.50757178 170.54213516 15.50520217 172.18953388 15.51051712 173.83689117 C15.51760343 176.13891125 15.50028021 178.43959209 15.47769165 180.7414856 C15.47484161 182.04813171 15.47199158 183.35477783 15.46905518 184.70101929 C14.87652386 188.84970427 13.57209041 190.99872993 10.96353149 194.24050903 C5.20251607 198.3153736 -0.14289492 198.96561085 -7.03646851 198.24050903 C-11.70496354 196.84870898 -14.43403019 194.99741871 -17.47396851 191.17800903 C-19.89068945 186.63457366 -20.16500154 183.4075572 -20.1769104 178.30767822 C-20.17988152 177.59810467 -20.18285264 176.88853111 -20.1859138 176.15745533 C-20.19460279 173.77383245 -20.19610921 171.39025978 -20.19760132 169.00662231 C-20.20222931 167.30002739 -20.20725394 165.5934335 -20.21264648 163.88684082 C-20.2257733 159.24633527 -20.23221585 154.60584419 -20.23665714 149.96532297 C-20.23958708 147.06718024 -20.24369171 144.16904147 -20.24816132 141.27090073 C-20.26183625 132.20626981 -20.27150324 123.14164793 -20.27536321 114.07700741 C-20.27984577 103.60741679 -20.29740287 93.13795661 -20.3263638 82.66840565 C-20.347965 74.57915927 -20.35806663 66.48994963 -20.35940433 58.4006747 C-20.36045337 53.56758352 -20.36638232 48.73461496 -20.38422394 43.90155411 C-20.40067789 39.35597689 -20.40287319 34.81061481 -20.39408493 30.26501846 C-20.39331315 28.5965009 -20.39767581 26.9279719 -20.40754318 25.25948334 C-20.42022343 22.9818339 -20.41440782 20.704951 -20.40396118 18.42730713 C-20.40616102 16.51536151 -20.40616102 16.51536151 -20.4084053 14.56479073 C-19.87618917 9.80797088 -18.15043424 7.2942604 -14.72396851 4.05300903 C-10.0184385 0.87951205 -5.61590909 -0.01008242 0 0 Z " fill="#082132" transform="translate(104,7)"/>
<path d="M0 0 C1.77934433 -0.00412399 1.77934433 -0.00412399 3.59463501 -0.0083313 C4.88216675 -0.00114075 6.16969849 0.0060498 7.49624634 0.01345825 C8.87642407 0.01402287 10.2566024 0.01370482 11.63677979 0.01257324 C15.37189556 0.0120007 19.10688222 0.02373895 22.84196806 0.03772116 C26.74972086 0.05024502 30.6574768 0.05140032 34.56524658 0.05377197 C41.9599292 0.05998188 49.35455251 0.07638606 56.74920905 0.09647095 C65.16997769 0.11884519 73.5907492 0.12982722 82.01154017 0.13986182 C99.32890489 0.16075273 116.64621192 0.19591918 133.96353149 0.24050903 C134.03361616 24.24059658 134.08651705 48.24066878 134.11896801 72.24083805 C134.13443611 83.38456201 134.15552462 94.52822238 134.18984985 105.67190552 C134.21975386 115.3848684 134.23910691 125.09778523 134.24579698 134.81079286 C134.24970752 139.95363754 134.2588968 145.09635046 134.28072166 150.23915291 C134.30110255 155.08098037 134.30736202 159.92262194 134.30285454 164.76448822 C134.30367902 166.54020892 134.3096351 168.31593592 134.32114792 170.09161949 C134.33611725 172.51977736 134.33246915 174.94723731 134.32429504 177.37541199 C134.33303357 178.07484753 134.34177209 178.77428308 134.35077542 179.49491364 C134.29715321 185.40520247 132.83453081 189.93294321 129.08853149 194.55300903 C123.83075508 198.72830207 118.46142982 198.8811469 111.96353149 198.24050903 C106.064268 196.49974276 103.45740912 194.07028105 99.96353149 189.24050903 C98.41601444 186.14547493 98.81047009 182.87449807 98.80581665 179.4770813 C98.80073593 178.67515854 98.79565521 177.87323578 98.79042053 177.04701233 C98.77970335 175.30095583 98.77108848 173.55488548 98.7643013 171.80880928 C98.75251075 169.03734824 98.73305305 166.26604293 98.71118164 163.49464417 C98.64960248 155.61286685 98.59570176 147.73110193 98.56216431 139.84915161 C98.54110298 135.02914507 98.50569877 130.20941677 98.46140671 125.38957024 C98.44732571 123.55936927 98.43854229 121.72911901 98.43535233 119.89886665 C98.40828882 105.84593628 97.76573855 91.51784863 88.24868774 80.20144653 C80.27811511 72.54056895 71.02325882 70.61174903 60.30264282 70.77420044 C47.17586354 71.34372363 35.89518308 77.199793 26.72915649 86.51004028 C16.75789108 98.67583633 15.67600109 112.0261824 15.68913651 127.18930817 C15.69011264 129.67868257 15.67703612 132.16763797 15.66015625 134.6569519 C15.61418678 141.72676501 15.58925944 148.79652776 15.58267212 155.8664856 C15.57765272 160.20945678 15.55339632 164.55197923 15.51734543 168.89479828 C15.50757178 170.54213516 15.50520217 172.18953388 15.51051712 173.83689117 C15.51760343 176.13891125 15.50028021 178.43959209 15.47769165 180.7414856 C15.47484161 182.04813171 15.47199158 183.35477783 15.46905518 184.70101929 C14.87652386 188.84970427 13.57209041 190.99872993 10.96353149 194.24050903 C5.20251607 198.3153736 -0.14289492 198.96561085 -7.03646851 198.24050903 C-11.70496354 196.84870898 -14.43403019 194.99741871 -17.47396851 191.17800903 C-19.89068945 186.63457366 -20.16500154 183.4075572 -20.1769104 178.30767822 C-20.17988152 177.59810467 -20.18285264 176.88853111 -20.1859138 176.15745533 C-20.19460279 173.77383245 -20.19610921 171.39025978 -20.19760132 169.00662231 C-20.20222931 167.30002739 -20.20725394 165.5934335 -20.21264648 163.88684082 C-20.2257733 159.24633527 -20.23221585 154.60584419 -20.23665714 149.96532297 C-20.23958708 147.06718024 -20.24369171 144.16904147 -20.24816132 141.27090073 C-20.26183625 132.20626981 -20.27150324 123.14164793 -20.27536321 114.07700741 C-20.27984577 103.60741679 -20.29740287 93.13795661 -20.3263638 82.66840565 C-20.347965 74.57915927 -20.35806663 66.48994963 -20.35940433 58.4006747 C-20.36045337 53.56758352 -20.36638232 48.73461496 -20.38422394 43.90155411 C-20.40067789 39.35597689 -20.40287319 34.81061481 -20.39408493 30.26501846 C-20.39331315 28.5965009 -20.39767581 26.9279719 -20.40754318 25.25948334 C-20.42022343 22.9818339 -20.41440782 20.704951 -20.40396118 18.42730713 C-20.40616102 16.51536151 -20.40616102 16.51536151 -20.4084053 14.56479073 C-19.87618917 9.80797088 -18.15043424 7.2942604 -14.72396851 4.05300903 C-10.0184385 0.87951205 -5.61590909 -0.01008242 0 0 Z " fill="#082132" transform="translate(1466.0364685058594,-0.240509033203125)"/>
<path d="M0 0 C5.31449057 4.78667028 9.79815991 9.71292337 13.19824219 16.04199219 C13.70871094 16.98300781 14.21917969 17.92402344 14.74511719 18.89355469 C21.22919501 31.82961094 23.53490656 44.32285749 23.69824219 58.66699219 C23.71677246 59.68639893 23.73530273 60.70580566 23.75439453 61.75610352 C23.70131087 68.04443512 22.9672005 71.94843621 19.19824219 77.04199219 C13.32594559 80.95685658 6.42608201 80.18033855 -0.39697266 80.15551758 C-1.45123444 80.1556636 -2.50549622 80.15580963 -3.59170532 80.15596008 C-7.06538981 80.15526518 -10.53902023 80.14749254 -14.01269531 80.13964844 C-16.42550629 80.13778276 -18.83831765 80.13635956 -21.25112915 80.13536072 C-27.59357758 80.13154736 -33.93600302 80.12172713 -40.27844238 80.11065674 C-46.75365895 80.10041724 -53.22887923 80.09585766 -59.70410156 80.09082031 C-72.40333011 80.08010382 -85.10254274 80.06323449 -97.80175781 80.04199219 C-97.03020606 81.79007455 -96.25306876 83.53569221 -95.47363281 85.28027344 C-95.04147461 86.25262939 -94.60931641 87.22498535 -94.1640625 88.22680664 C-89.47221143 97.92245801 -81.20340629 106.34654582 -71.11035156 110.29980469 C-57.08606487 114.80845862 -41.96327298 114.17140992 -28.55175781 107.79199219 C-24.07979109 105.36350695 -19.94393218 102.48724568 -15.83300781 99.49511719 C-11.38333061 96.31188658 -7.14017211 96.34838799 -1.80175781 97.04199219 C2.2532783 98.67894981 5.2181103 101.00060206 8.19824219 104.16699219 C9.83541281 108.87385773 10.1215086 113.1358758 9.19824219 118.04199219 C4.1482884 127.98458032 -6.63811975 135.12037483 -16.80175781 139.04199219 C-40.81172148 146.43158722 -68.99278076 147.2681849 -92.05175781 136.29199219 C-111.376818 125.95412397 -123.59579227 111.10839742 -131.05175781 90.60449219 C-133.34562371 79.7086292 -134.17303826 69.16802958 -133.80175781 58.04199219 C-133.78371094 57.1203125 -133.76566406 56.19863281 -133.74707031 55.24902344 C-132.82162313 37.25724154 -124.74635344 19.28290052 -112.80175781 6.04199219 C-112.19847656 5.34589844 -111.59519531 4.64980469 -110.97363281 3.93261719 C-83.70791046 -25.62434234 -29.56397146 -25.51856547 0 0 Z " fill="#082132" transform="translate(675.8017578125,56.9580078125)"/>
<path d="M0 0 C16.28459983 -0.45094143 31.73091427 1.06820556 46.12109375 9.15234375 C46.85328125 9.54292969 47.58546875 9.93351562 48.33984375 10.3359375 C63.19665494 18.8550217 73.7924444 33.06359218 79.12109375 49.15234375 C80.42363506 54.09859541 81.30889282 59.10384303 82.12109375 64.15234375 C82.30671875 65.15523438 82.49234375 66.158125 82.68359375 67.19140625 C84.0240839 76.26365206 84.09410755 85.89239625 79.49609375 94.02734375 C73.83240529 99.09485448 65.57088428 98.43252459 58.390625 98.37939453 C56.82342461 98.37983261 56.82342461 98.37983261 55.2245636 98.38027954 C51.79415386 98.37889365 48.36396523 98.36336728 44.93359375 98.34765625 C42.5460624 98.34392349 40.15852952 98.34107776 37.77099609 98.33908081 C31.50416798 98.33146509 25.23743339 98.31183427 18.97064209 98.28967285 C12.56898259 98.26917 6.1673079 98.26006961 -0.234375 98.25 C-12.78259185 98.22858646 -25.33074406 98.19486292 -37.87890625 98.15234375 C-37.27126047 99.72433817 -36.65820548 101.29424218 -36.04296875 102.86328125 C-35.5317749 104.17498291 -35.5317749 104.17498291 -35.01025391 105.51318359 C-30.69244573 115.58558463 -23.21366577 122.83825751 -13.31640625 127.52734375 C-0.81984636 132.47344276 13.52461747 132.87949131 26.1484375 127.9765625 C27.99490481 127.13635791 29.83014233 126.27064249 31.6484375 125.37109375 C34.09848844 124.1634857 36.57420162 123.1364738 39.12109375 122.15234375 C39.12109375 121.49234375 39.12109375 120.83234375 39.12109375 120.15234375 C42.99947219 116.48510912 47.2669363 114.74518353 52.55859375 114.40234375 C58.0289083 114.65376489 61.2021189 116.69518379 65.34375 120.1328125 C68.1577243 123.33022945 69.00682884 126.28719516 69.55859375 130.46484375 C68.63102916 138.28288813 63.02190958 144.26375364 57.12109375 149.15234375 C37.52020799 163.12425719 11.86757355 164.29470126 -11.22265625 160.8359375 C-32.83461582 156.79523993 -50.13708056 145.79423 -63.00390625 128.02734375 C-71.7948294 114.31254288 -74.23296843 99.8412849 -74.19140625 83.83984375 C-74.20751953 82.61072266 -74.22363281 81.38160156 -74.24023438 80.11523438 C-74.24466076 71.72723157 -73.06853443 64.23388355 -70.87890625 56.15234375 C-70.66645264 55.26579102 -70.45399902 54.37923828 -70.23510742 53.46582031 C-65.71029999 34.73267053 -51.32603457 19.44508595 -35.3515625 9.59375 C-24.23602644 3.65683307 -12.49879222 0.49088912 0 0 Z " fill="#082132" transform="translate(1157.87890625,38.84765625)"/>
<path d="M0 0 C7.3450534 3.47613058 11.02383369 8.25334882 14.5625 15.375 C15.02446777 16.25841064 15.48643555 17.14182129 15.96240234 18.05200195 C17.33347731 20.68936089 18.67130547 23.34108311 20 26 C20.71992605 27.42324084 21.43996802 28.84642306 22.16015625 30.26953125 C23.46612017 32.86484297 24.75601043 35.46751791 26.0390625 38.07421875 C28.11139746 42.2599146 30.29973802 46.38046997 32.5 50.5 C35.76008642 56.60797002 38.90235394 62.76263927 41.97387695 68.96728516 C44.82758722 74.70872062 47.81995338 80.37141424 50.83569336 86.02905273 C53.64675416 91.30914648 56.37234773 96.62585691 59 102 C64.83783114 91.08109362 70.50896807 80.09703063 76 69 C80.42620036 60.05492708 84.94115964 51.17320753 89.63769531 42.36669922 C92.22225994 37.50642432 94.7311648 32.6137511 97.1875 27.6875 C97.51878906 27.02758057 97.85007812 26.36766113 98.19140625 25.68774414 C99.69951245 22.67115472 101.15823516 19.65084635 102.55078125 16.578125 C105.8806097 9.36200082 109.7061029 3.64694855 117 0 C122.51881558 -0.8103837 126.78710497 -0.67580651 131.375 2.6875 C132.61070769 3.76094305 133.82235937 4.86315524 135 6 C136.2065625 7.1446875 136.2065625 7.1446875 137.4375 8.3125 C139.87001698 12.4964292 140.69432165 17.26340019 139.48754883 22.01977539 C138.65412868 24.03892864 137.71161943 25.94561536 136.6875 27.875 C136.14706055 28.95467041 136.14706055 28.95467041 135.59570312 30.05615234 C134.42105981 32.3839272 133.21358826 34.69231819 132 37 C131.17283104 38.59877935 130.34601082 40.19773917 129.51953125 41.796875 C126.3540844 47.88332552 123.11281344 53.92870842 119.8671875 59.97265625 C119.2028809 61.21080656 118.53881287 62.44908491 117.875 63.6875 C117.55200928 64.28981445 117.22901855 64.89212891 116.89624023 65.51269531 C114.18757102 70.59068348 111.61708179 75.73233907 109.06542969 80.890625 C106.67391854 85.70612174 104.17047446 90.45194018 101.625 95.1875 C98.24247 101.49688238 95.10609296 107.89580026 92.0625 114.375 C87.3413099 124.41624134 82.25092403 134.22720221 77 144 C73.02587588 151.39966187 69.06288967 158.79622719 65.3125 166.3125 C64.83768188 167.26020264 64.83768188 167.26020264 64.35327148 168.22705078 C62.14675627 172.64855354 59.99193356 177.09296782 57.8515625 181.546875 C56.71364455 183.88546673 55.57562341 186.22400825 54.4375 188.5625 C53.90745361 189.68116455 53.37740723 190.7998291 52.83129883 191.95239258 C49.06387616 199.65028208 45.16331426 205.22445716 38 210 C31.30403443 211.5815233 26.32855645 210.9812836 20.375 207.4375 C17.14275695 204.12019792 15.08287667 200.5213617 14 196 C14.29257376 190.57466479 15.99222739 186.35918246 18.5 181.625 C18.85239746 180.93946045 19.20479492 180.2539209 19.56787109 179.54760742 C21.83035943 175.16620984 24.15717383 170.81861662 26.47680664 166.46728516 C35.07201826 152.83467546 35.07201826 152.83467546 38 138 C36.7845226 135.09576894 35.27726472 132.37533444 33.75 129.625 C32.82992582 127.92491368 31.91069226 126.22437224 30.9921875 124.5234375 C30.50459961 123.6272168 30.01701172 122.73099609 29.51464844 121.80761719 C26.91248818 116.98414153 24.39905229 112.11466122 21.875 107.25 C18.5359162 100.83441541 15.17549422 94.43235557 11.75 88.0625 C8.74413022 82.4684343 5.88710631 76.80964623 3.06933594 71.11938477 C0.26776683 65.48282959 -2.67078217 59.92560467 -5.63549805 54.37353516 C-8.60764274 48.7888053 -11.46149893 43.15166942 -14.24414062 37.47021484 C-16.00298527 33.89968857 -17.89277759 30.49892353 -20 27.125 C-22.60130907 22.47980524 -23.02510833 18.20956692 -22 13 C-19.89246574 7.47013947 -16.33054205 3.69343119 -11.16796875 0.85546875 C-7.24681776 -0.69179623 -4.10899763 -0.86352408 0 0 Z " fill="#092132" transform="translate(807,42)"/>
<path d="M0 0 C3.53917683 1.83764951 5.99037755 4.46061054 8.75 7.3125 C9.55179688 8.10269531 10.35359375 8.89289062 11.1796875 9.70703125 C15.60817877 14.08600265 19.86050253 18.5172388 23.90625 23.25 C26.09796313 25.70174689 28.41067104 28.00135573 30.75 30.3125 C36.82170607 36.31971147 42.3189717 42.7294354 47.75 49.3125 C51.21108537 47.82806158 53.43513626 45.86619767 56.0625 43.1875 C56.78050781 42.46304688 57.49851562 41.73859375 58.23828125 40.9921875 C60.237125 38.85967302 62.16951498 36.70131068 64.0859375 34.49609375 C67.64651481 30.40140589 71.33352559 26.44111335 75.0625 22.5 C80.45573418 16.80485421 80.45573418 16.80485421 85.69921875 10.97265625 C90.06796332 5.98840709 93.68960031 2.09018319 99.75 -0.6875 C100.41 -1.0175 101.07 -1.3475 101.75 -1.6875 C107.21432756 -2.48988267 111.57225422 -2.34454066 116.1875 0.875 C119.86676638 4.04780866 121.51239687 6.60960811 122.75 11.3125 C122.88980728 18.86209337 118.57073458 24.3074706 113.59765625 29.60546875 C112.06629426 31.12635989 110.52311618 32.63543975 108.96875 34.1328125 C106.966613 36.09970061 105.1307021 38.11447018 103.3125 40.25 C100.59380752 43.4228592 97.72248325 46.37588382 94.75 49.3125 C91.23586743 52.7896417 87.90085154 56.33187776 84.6875 60.0859375 C82.11437924 63.04295128 79.46524828 65.92696556 76.8125 68.8125 C76.31500244 69.35374512 75.81750488 69.89499023 75.30493164 70.45263672 C74.12067309 71.73991933 72.93544151 73.02630668 71.75 74.3125 C73.36116377 78.21077556 76.01523536 80.98335685 78.875 84 C79.39489502 84.55598877 79.91479004 85.11197754 80.45043945 85.68481445 C82.2118111 87.56561858 83.98036107 89.43947373 85.75 91.3125 C87.09520302 92.73944106 88.44025027 94.16652898 89.78515625 95.59375 C91.86315483 97.79885303 93.94119322 100.00391531 96.02026367 102.20800781 C100.31683232 106.76906828 104.57082453 111.35705979 108.72265625 116.05078125 C110.18136875 117.67813103 111.67258879 119.27655346 113.18359375 120.85546875 C122.00843673 130.18862269 122.00843673 130.18862269 122.75 136.3125 C122.56157374 142.34214039 120.46143974 146.61632375 116.3203125 150.9375 C113.15445864 153.70959094 110.55516212 154.22134957 106.4375 154.6875 C94.69692838 153.49354356 87.71325369 143.69458571 80.49609375 135.27734375 C78.65384325 133.20429676 76.72598338 131.25814198 74.75 129.3125 C71.58674771 126.19158569 68.64051013 122.95633243 65.73828125 119.59375 C63.23327205 116.71963336 60.68765172 113.88523023 58.125 111.0625 C57.44183716 110.30114746 57.44183716 110.30114746 56.74487305 109.52441406 C53.95447652 106.46231438 51.05020202 103.81445821 47.75 101.3125 C43.91521524 105.05764044 40.12020345 108.80769164 36.625 112.875 C32.1190509 118.10312153 27.38271938 123.11273055 22.65625 128.140625 C19.92489888 131.04720537 17.22159055 133.97730961 14.53125 136.921875 C13.1250336 138.44794763 11.7187843 139.97398994 10.3125 141.5 C9.3380896 142.57785767 9.3380896 142.57785767 8.34399414 143.67749023 C4.4447416 147.88496035 0.88887014 150.74624886 -4.25 153.3125 C-4.91 153.6425 -5.57 153.9725 -6.25 154.3125 C-11.85469691 154.68614646 -15.43708503 154.52110998 -20.25 151.3125 C-23.79584553 147.71873764 -26.09781434 144.78362802 -26.625 139.6875 C-26.49997209 131.49265621 -19.75652917 125.3613869 -14.375 119.8125 C-13.121455 118.49698962 -11.86883882 117.18059351 -10.6171875 115.86328125 C-10.02776367 115.24533691 -9.43833984 114.62739258 -8.83105469 113.99072266 C-6.9951477 112.04198506 -5.23542888 110.03850618 -3.5 108 C-0.09638304 104.03770854 3.62869878 100.42196244 7.33984375 96.75 C9.99775937 94.06192975 12.48720603 91.27600109 14.9453125 88.40625 C18.47476905 84.31146925 22.12560072 80.32317313 25.75 76.3125 C22.91482893 71.75186682 19.80208883 68.14699438 15.9375 64.4375 C12.04351634 60.62228287 8.31168289 56.77205969 4.7734375 52.62109375 C1.92119728 49.3668969 -1.04153467 46.22000943 -4 43.0625 C-4.60344238 42.41643799 -5.20688477 41.77037598 -5.82861328 41.10473633 C-8.71931653 38.01053313 -11.61718202 34.92377198 -14.53125 31.8515625 C-15.52105396 30.79708205 -16.51064946 29.74240588 -17.5 28.6875 C-18.80710938 27.30691406 -18.80710938 27.30691406 -20.140625 25.8984375 C-24.24479228 20.86703242 -24.75682738 16.30901624 -24.62890625 9.97265625 C-24.01302884 5.64881589 -22.53765374 4.17132934 -19.25 1.3125 C-13.18680884 -2.82149397 -6.59319311 -3.0602368 0 0 Z " fill="#65D8C7" transform="translate(76,20)"/>
<path d="M0 0 C2.475 0.495 2.475 0.495 5 1 C5 1.99 5 2.98 5 4 C6.32 4 7.64 4 9 4 C11.1385485 6.1385485 11.42655063 7.13275314 12 10 C11.34 10 10.68 10 10 10 C9.67 10.66 9.34 11.32 9 12 C7.49405319 10.38050958 5.99539332 8.75424026 4.5 7.125 C3.6646875 6.22007812 2.829375 5.31515625 1.96875 4.3828125 C0 2 0 2 0 0 Z " fill="#EAF0F2" transform="translate(1314,149)"/>
<path d="M0 0 C6.75 2.875 6.75 2.875 9 4 C14.2372694 4.26186347 18.06215348 3.97513861 23 2 C22.48828125 3.93359375 22.48828125 3.93359375 21 6 C18.25421434 6.61254486 15.96079276 6.92173625 13.1875 7.0625 C12.47529297 7.13404297 11.76308594 7.20558594 11.02929688 7.27929688 C6.92505068 7.53367661 5.24978152 7.19729824 1.98828125 4.62109375 C0 2 0 2 0 0 Z " fill="#DFF9F7" transform="translate(83,224)"/>
<path d="M0 0 C0 0.99 0 1.98 0 3 C-7.42857143 6.28571429 -7.42857143 6.28571429 -11 7 C-11 7.66 -11 8.32 -11 9 C-11.969375 9.474375 -12.93875 9.94875 -13.9375 10.4375 C-16.80477437 11.70193947 -16.80477437 11.70193947 -18 13 C-19.66617115 13.04063832 -21.33388095 13.042721 -23 13 C-18.58026879 9.57597835 -13.81163336 6.83080734 -9 4 C-8.29488281 3.57847656 -7.58976562 3.15695313 -6.86328125 2.72265625 C-2.24154804 0 -2.24154804 0 0 0 Z " fill="#7ED5C6" transform="translate(62,28)"/>
<path d="M0 0 C0 0.66 0 1.32 0 2 C-1.86328125 3.5078125 -1.86328125 3.5078125 -4.3125 5.125 C-5.11300781 5.66382812 -5.91351562 6.20265625 -6.73828125 6.7578125 C-9 8 -9 8 -12 8 C-12 8.66 -12 9.32 -12 10 C-13.95927063 11.7143618 -15.95880212 13.38405168 -18 15 C-18.66 14.67 -19.32 14.34 -20 14 C-7.27918782 0 -7.27918782 0 0 0 Z " fill="#E6EDF3" transform="translate(607,72)"/>
<path d="M0 0 C0.66 0 1.32 0 2 0 C3.2047588 14.51447509 3.2047588 14.51447509 -1.25 20.375 C-3.67135853 23.13783217 -5.34500993 24.43396172 -9 25 C-8.60167969 24.5875 -8.20335937 24.175 -7.79296875 23.75 C-1.51422639 16.90601806 0.39852154 11.17230022 0.10546875 1.90625 C0.07066406 1.2771875 0.03585938 0.648125 0 0 Z " fill="#DBFBF8" transform="translate(197,150)"/>
<path d="M0 0 C0.33 0.66 0.66 1.32 1 2 C0.360625 2.28875 -0.27875 2.5775 -0.9375 2.875 C-3.15206079 3.82823451 -3.15206079 3.82823451 -4 6 C-6.93704456 8.0095568 -8.39222485 9 -12 9 C-12.33 9.99 -12.66 10.98 -13 12 C-14.98 12.33 -16.96 12.66 -19 13 C-16.24547063 10.05462564 -13.5500221 7.95263218 -10.0625 5.9375 C-9.22847656 5.45152344 -8.39445313 4.96554688 -7.53515625 4.46484375 C-6.69855469 3.98144531 -5.86195313 3.49804688 -5 3 C-3.33170224 2.00272353 -1.66456105 1.00350102 0 0 Z " fill="#81D5C6" transform="translate(140,154)"/>
<path d="M0 0 C0.78375 0.04125 1.5675 0.0825 2.375 0.125 C-0.42819171 3.12376322 -3.21934917 5.28822727 -6.75 7.375 C-8.05324219 8.15617188 -8.05324219 8.15617188 -9.3828125 8.953125 C-11.625 10.125 -11.625 10.125 -13.625 10.125 C-12.965 8.475 -12.305 6.825 -11.625 5.125 C-10.635 5.455 -9.645 5.785 -8.625 6.125 C-8.625 5.465 -8.625 4.805 -8.625 4.125 C-7.305 4.125 -5.985 4.125 -4.625 4.125 C-4.625 3.465 -4.625 2.805 -4.625 2.125 C-2.625 0.125 -2.625 0.125 0 0 Z " fill="#E2FBF8" transform="translate(132.625,156.875)"/>
<path d="M0 0 C0.268125 0.556875 0.53625 1.11375 0.8125 1.6875 C2.00699665 4.08933398 2.00699665 4.08933398 3.625 6.625 C5 9 5 9 5 11 C5.5775 11.2475 6.155 11.495 6.75 11.75 C9.3002997 13.16683317 11.01785701 14.87627537 13 17 C10.83125748 16.49396008 9.00032373 16.00016187 7 15 C7 14.34 7 13.68 7 13 C6.401875 12.773125 5.80375 12.54625 5.1875 12.3125 C2.31988887 10.59193332 1.37940051 9.03468112 0 6 C-0.1875 2.6875 -0.1875 2.6875 0 0 Z " fill="#DAFBF8" transform="translate(0,168)"/>
<path d="M0 0 C-4.44568695 3.40836 -6.76800834 4.17415396 -12.4375 4.25 C-13.59121094 4.27578125 -14.74492188 4.3015625 -15.93359375 4.328125 C-19 4 -19 4 -20.91015625 2.484375 C-21.26980469 1.99453125 -21.62945312 1.5046875 -22 1 C-21.10796875 1.09539062 -20.2159375 1.19078125 -19.296875 1.2890625 C-18.12640625 1.39992187 -16.9559375 1.51078125 -15.75 1.625 C-14.58984375 1.74101562 -13.4296875 1.85703125 -12.234375 1.9765625 C-7.66990456 2.00963837 -4.68232106 -0.26012895 0 0 Z " fill="#83D6C7" transform="translate(114,132)"/>
<path d="M0 0 C2.79827632 1.11833382 5.39726245 2.48567997 8 4 C6.125 4.625 6.125 4.625 4 5 C3.34 4.34 2.68 3.68 2 3 C-2.97959436 2.48000696 -8.15479581 2.70794555 -13 4 C-8.3788967 0.45715414 -5.97468514 -0.48182945 0 0 Z " fill="#89D7CA" transform="translate(104,7)"/>
<path d="M0 0 C0.66 0.33 1.32 0.66 2 1 C-1.6593858 5.10294771 -4.90118223 7.01712642 -10 9 C-10.99 9.66 -11.98 10.32 -13 11 C-13.66 10.34 -14.32 9.68 -15 9 C-12.54732365 7.46931512 -10.08866106 5.95031377 -7.625 4.4375 C-6.92632812 3.99986328 -6.22765625 3.56222656 -5.5078125 3.11132812 C-3.70814097 2.01249022 -1.85677657 0.99932133 0 0 Z " fill="#DDF9F7" transform="translate(132,121)"/>
<path d="M0 0 C2.0625 0.4375 2.0625 0.4375 4 1 C1.9021477 2.20005531 -0.2020249 3.38502983 -2.3125 4.5625 C-2.90740234 4.90474609 -3.50230469 5.24699219 -4.11523438 5.59960938 C-5.70282559 6.47766262 -7.34993931 7.24586268 -9 8 C-9.99 7.67 -10.98 7.34 -12 7 C-8.76348887 3.11618664 -5.84333764 2.18798848 -1 1 C-0.67 0.67 -0.34 0.34 0 0 Z " fill="#E7FAFA" transform="translate(93,7)"/>
<path d="M0 0 C0.66 0.33 1.32 0.66 2 1 C1.67 1.66 1.34 2.32 1 3 C0.01 3.33 -0.98 3.66 -2 4 C-2.598125 4.680625 -3.19625 5.36125 -3.8125 6.0625 C-6 8 -6 8 -9.25 8.25 C-10.1575 8.1675 -11.065 8.085 -12 8 C-8.20182235 4.77730382 -4.42608146 2.25479622 0 0 Z " fill="#E1F9F8" transform="translate(70,70)"/>
<path d="M0 0 C-2.52952288 3.15111212 -4.76756266 3.58798017 -8.6875 4.1875 C-9.68136719 4.34605469 -10.67523437 4.50460938 -11.69921875 4.66796875 C-12.45847656 4.77753906 -13.21773437 4.88710938 -14 5 C-14.33 4.34 -14.66 3.68 -15 3 C-12.87790224 2.30359327 -10.75221473 1.61811643 -8.625 0.9375 C-6.84996094 0.36322266 -6.84996094 0.36322266 -5.0390625 -0.22265625 C-2 -1 -2 -1 0 0 Z " fill="#22333D" transform="translate(1513,42)"/>
<path d="M0 0 C0.33 0 0.66 0 1 0 C1 3.96 1 7.92 1 12 C0.01 12 -0.98 12 -2 12 C-2 11.34 -2 10.68 -2 10 C-2.99 10.33 -3.98 10.66 -5 11 C-4.731875 10.484375 -4.46375 9.96875 -4.1875 9.4375 C-2.67650593 6.33598585 -1.34427274 3.17737194 0 0 Z " fill="#E4EBEE" transform="translate(1599,185)"/>
<path d="M0 0 C1.32 1.32 2.64 2.64 4 4 C3.01 4.33 2.02 4.66 1 5 C-0.96042985 7.24872836 -2.66404483 9.32808966 -4 12 C-4.66 11.67 -5.32 11.34 -6 11 C-5.18993474 9.35296694 -4.3768779 7.70740494 -3.5625 6.0625 C-3.11003906 5.14597656 -2.65757812 4.22945313 -2.19140625 3.28515625 C-1 1 -1 1 0 0 Z " fill="#E3E9EC" transform="translate(586,88)"/>
<path d="M0 0 C1.0625 1.875 1.0625 1.875 2 4 C1.67 4.66 1.34 5.32 1 6 C0.34 6 -0.32 6 -1 6 C-1.12375 6.61875 -1.2475 7.2375 -1.375 7.875 C-2 10 -2 10 -4 12 C-4.66 12 -5.32 12 -6 12 C-4.68139111 7.38486888 -2.78644563 3.90102388 0 0 Z " fill="#1D2F3D" transform="translate(1098,71)"/>
<path d="M0 0 C0.66 0.33 1.32 0.66 2 1 C1.38125 1.2475 0.7625 1.495 0.125 1.75 C-2.14291141 2.81460222 -2.14291141 2.81460222 -2.9375 5 C-4 7 -4 7 -6.4375 8.3125 C-9 9 -9 9 -12 8 C-10.37615858 6.85252535 -8.75088944 5.7070709 -7.125 4.5625 C-6.22007812 3.92441406 -5.31515625 3.28632812 -4.3828125 2.62890625 C-2 1 -2 1 0 0 Z " fill="#23333F" transform="translate(416,47)"/>
<path d="M0 0 C0.99 0.33 1.98 0.66 3 1 C1.85793642 2.50287218 0.71125043 4.00223284 -0.4375 5.5 C-1.39462891 6.75296875 -1.39462891 6.75296875 -2.37109375 8.03125 C-2.90863281 8.6809375 -3.44617188 9.330625 -4 10 C-4.33 10 -4.66 10 -5 10 C-5.3125 7.8125 -5.3125 7.8125 -5 5 C-2.5 2.1875 -2.5 2.1875 0 0 Z " fill="#182B39" transform="translate(316,60)"/>
<path d="M0 0 C3.45925163 1.2491742 6.14693203 2.67527795 9 5 C7.68 5 6.36 5 5 5 C4.01 5.66 3.02 6.32 2 7 C0.4375 4.625 0.4375 4.625 -1 2 C-0.67 1.34 -0.34 0.68 0 0 Z " fill="#132737" transform="translate(1201,47)"/>
<path d="M0 0 C12.27112676 3.89084507 12.27112676 3.89084507 14.4375 7.1875 C14.623125 7.785625 14.80875 8.38375 15 9 C11.32305352 7.62859834 8.04681411 5.96304199 4.6875 3.9375 C3.80449219 3.41027344 2.92148438 2.88304687 2.01171875 2.33984375 C1.34785156 1.89769531 0.68398437 1.45554687 0 1 C0 0.67 0 0.34 0 0 Z " fill="#DDF9F7" transform="translate(120,15)"/>
<path d="M0 0 C0.99 0.33 1.98 0.66 3 1 C0.52010087 3.85818883 -2.13646878 5.19893393 -5.5625 6.75 C-7.01849609 7.42289063 -7.01849609 7.42289063 -8.50390625 8.109375 C-9.32761719 8.40328125 -10.15132813 8.6971875 -11 9 C-11.66 8.67 -12.32 8.34 -13 8 C-10.90320896 6.63304778 -8.7989062 5.28153009 -6.6875 3.9375 C-6.09259766 3.54755859 -5.49769531 3.15761719 -4.88476562 2.75585938 C-3.30390365 1.75788505 -1.65405288 0.87131304 0 0 Z " fill="#7ED5C7" transform="translate(89,11)"/>
<path d="M0 0 C0.66 0.66 1.32 1.32 2 2 C0.60746468 5.48133831 -0.63176216 6.47886033 -4 8 C-4.33 8.66 -4.66 9.32 -5 10 C-6.32 9.67 -7.64 9.34 -9 9 C-8.2575 8.443125 -7.515 7.88625 -6.75 7.3125 C-4.08292005 5.06972822 -2.08443768 2.77925025 0 0 Z " fill="#E6EDF2" transform="translate(684,176)"/>
<path d="M0 0 C2.31 0 4.62 0 7 0 C6.67 1.32 6.34 2.64 6 4 C6.99 4.33 7.98 4.66 9 5 C8.67 5.99 8.34 6.98 8 8 C6.66372225 6.85760183 5.33104612 5.71098945 4 4.5625 C3.2575 3.92441406 2.515 3.28632813 1.75 2.62890625 C1.1725 2.09136719 0.595 1.55382812 0 1 C0 0.67 0 0.34 0 0 Z " fill="#E9EEF3" transform="translate(423,156)"/>
<path d="M0 0 C0.66 1.32 1.32 2.64 2 4 C1.01 5.485 1.01 5.485 0 7 C-3.625 7.1875 -3.625 7.1875 -7 7 C-4.78071806 4.09197539 -3.07030857 2.04687238 0 0 Z " fill="#E0E6EB" transform="translate(1499,80)"/>
<path d="M0 0 C0.66 0.33 1.32 0.66 2 1 C1.5361167 5.17494967 1.1386402 7.22351059 -2 10 C-3.03357147 11.64605826 -4.04060332 13.30963442 -5 15 C-5.66 14.67 -6.32 14.34 -7 14 C-4.69 9.38 -2.38 4.76 0 0 Z " fill="#E5ECF1" transform="translate(885,182)"/>
<path d="M0 0 C-0.25 2.875 -0.25 2.875 -1 6 C-3.0625 7.375 -3.0625 7.375 -5 8 C-5 7.34 -5 6.68 -5 6 C-5.99 5.67 -6.98 5.34 -8 5 C-2.25 0 -2.25 0 0 0 Z " fill="#132635" transform="translate(495,156)"/>
<path d="M0 0 C3.3 0 6.6 0 10 0 C9.67 0.99 9.34 1.98 9 3 C5.52176885 4.15941038 3.54104422 3.70820884 0 3 C0 2.01 0 1.02 0 0 Z " fill="#31424D" transform="translate(924,42)"/>
<path d="M0 0 C0 0.66 0 1.32 0 2 C-2.1171875 3.47265625 -2.1171875 3.47265625 -4.875 5.0625 C-5.77992187 5.58972656 -6.68484375 6.11695313 -7.6171875 6.66015625 C-9.06072748 7.47185168 -10.51874185 8.25937093 -12 9 C-12.66 8.34 -13.32 7.68 -14 7 C-12.04480616 5.82807953 -10.0857461 4.6626071 -8.125 3.5 C-7.03445312 2.8503125 -5.94390625 2.200625 -4.8203125 1.53125 C-2 0 -2 0 0 0 Z " fill="#7ED5C8" transform="translate(76,20)"/>
<path d="M0 0 C0.99 0.33 1.98 0.66 3 1 C2.34 1 1.68 1 1 1 C1 1.66 1 2.32 1 3 C-2.25879193 6.82338506 -4.87917809 8.89325506 -9.9375 9.375 C-10.948125 9.25125 -11.95875 9.1275 -13 9 C-13 8.67 -13 8.34 -13 8 C-12.154375 7.79375 -11.30875 7.5875 -10.4375 7.375 C-6.63862051 5.8554482 -4.49473998 3.97299764 -1.61328125 1.14453125 C-1.08089844 0.76683594 -0.54851563 0.38914063 0 0 Z " fill="#D9E3E9" transform="translate(853,244)"/>
<path d="M0 0 C0.99 0 1.98 0 3 0 C3 5.61 3 11.22 3 17 C2.67 17 2.34 17 2 17 C1.34 11.39 0.68 5.78 0 0 Z " fill="#DAE5EC" transform="translate(1597,87)"/>
<path d="M0 0 C0.66 0 1.32 0 2 0 C0.33333333 3.33333333 -1.33333333 6.66666667 -3 10 C-4.32 9.34 -5.64 8.68 -7 8 C-5.88200014 6.66079162 -4.75538103 5.32877444 -3.625 4 C-2.68527344 2.88625 -2.68527344 2.88625 -1.7265625 1.75 C-1.15679688 1.1725 -0.58703125 0.595 0 0 Z " fill="#1D313E" transform="translate(1295,59)"/>
<path d="M0 0 C0 0.66 0 1.32 0 2 C-1.828125 3.54296875 -1.828125 3.54296875 -4.25 5.1875 C-5.43335938 6.01314453 -5.43335938 6.01314453 -6.640625 6.85546875 C-9 8 -9 8 -11.296875 7.67578125 C-11.85890625 7.45277344 -12.4209375 7.22976562 -13 7 C-6.25 3 -6.25 3 -4 3 C-4 2.34 -4 1.68 -4 1 C-2 0 -2 0 0 0 Z " fill="#DCF8F6" transform="translate(146,201)"/>
<path d="M0 0 C-1.78809697 1.17213045 -3.58059125 2.33755526 -5.375 3.5 C-6.37273437 4.1496875 -7.37046875 4.799375 -8.3984375 5.46875 C-11 7 -11 7 -13 7 C-13 6.34 -13 5.68 -13 5 C-11.35 4.34 -9.7 3.68 -8 3 C-8 2.34 -8 1.68 -8 1 C-2.25 -1.125 -2.25 -1.125 0 0 Z " fill="#78D3C4" transform="translate(186,176)"/>
<path d="M0 0 C1.65 0.33 3.3 0.66 5 1 C3.60667426 4.36720387 2.0210714 5.9859524 -1 8 C-2 6 -2 6 -1.0625 2.875 C-0.5365625 1.451875 -0.5365625 1.451875 0 0 Z " fill="#DFE5EA" transform="translate(291,80)"/>
<path d="M0 0 C-1.485 1.485 -1.485 1.485 -3 3 C-3.66 2.67 -4.32 2.34 -5 2 C-5.99 3.485 -5.99 3.485 -7 5 C-9.475 4.01 -9.475 4.01 -12 3 C-8.52582963 0.68388642 -4.04642977 -2.02321489 0 0 Z " fill="#233541" transform="translate(602,42)"/>
<path d="M0 0 C3.60654039 2.40436026 3.85452932 3.94679607 5 8 C2.03 7.505 2.03 7.505 -1 7 C-1.04254356 5.00045254 -1.04080783 2.99958364 -1 1 C-0.67 0.67 -0.34 0.34 0 0 Z " fill="#152835" transform="translate(858,132)"/>
<path d="M0 0 C0.33 0.66 0.66 1.32 1 2 C-3.625 6 -3.625 6 -7 6 C-7 6.66 -7 7.32 -7 8 C-8.65 8 -10.3 8 -12 8 C-8.2064129 4.78119883 -4.34170523 2.3836813 0 0 Z " fill="#7DD5C5" transform="translate(38,41)"/>
<path d="M0 0 C1.4370809 -0.05422947 2.87475462 -0.09289723 4.3125 -0.125 C5.11300781 -0.14820313 5.91351562 -0.17140625 6.73828125 -0.1953125 C9 0 9 0 12 2 C12 2.66 12 3.32 12 4 C10.02 4 8.04 4 6 4 C6 3.34 6 2.68 6 2 C3.03 1.505 3.03 1.505 0 1 C0 0.67 0 0.34 0 0 Z " fill="#384853" transform="translate(798,42)"/>
<path d="M0 0 C-4.62 2.64 -9.24 5.28 -14 8 C-13 5 -13 5 -11 3.9375 C-10.34 3.628125 -9.68 3.31875 -9 3 C-8.67 2.34 -8.34 1.68 -8 1 C-2.47058824 -1.23529412 -2.47058824 -1.23529412 0 0 Z " fill="#DCFBF9" transform="translate(36,43)"/>
<path d="M0 0 C1.51400391 0.01740234 1.51400391 0.01740234 3.05859375 0.03515625 C4.07050781 0.04417969 5.08242187 0.05320313 6.125 0.0625 C7.29869141 0.07990234 7.29869141 0.07990234 8.49609375 0.09765625 C5.24078567 1.78192434 1.99138669 2.98551759 -1.50390625 4.09765625 C-1.50390625 3.43765625 -1.50390625 2.77765625 -1.50390625 2.09765625 C-2.16390625 1.76765625 -2.82390625 1.43765625 -3.50390625 1.09765625 C-2.50390625 0.09765625 -2.50390625 0.09765625 0 0 Z " fill="#E9F0F5" transform="translate(1451.50390625,-0.09765625)"/>
<path d="M0 0 C2.64 0 5.28 0 8 0 C7.46375 0.2475 6.9275 0.495 6.375 0.75 C3.43575748 2.29696975 0.74245592 4.13014369 -2 6 C-2.33 4.35 -2.66 2.7 -3 1 C-2.01 1.33 -1.02 1.66 0 2 C0 1.34 0 0.68 0 0 Z " fill="#DEE5EB" transform="translate(988,0)"/>
<path d="M0 0 C0.66 0.33 1.32 0.66 2 1 C-0.26786278 4.64666307 -2.06404326 5.67897228 -6.1875 6.75 C-7.53908203 7.11351562 -7.53908203 7.11351562 -8.91796875 7.484375 C-9.60503906 7.65453125 -10.29210937 7.8246875 -11 8 C-8.83385197 5.69125289 -6.60793392 3.94709819 -3.9375 2.25 C-2.89916016 1.57710937 -2.89916016 1.57710937 -1.83984375 0.890625 C-1.23269531 0.59671875 -0.62554687 0.3028125 0 0 Z " fill="#DAFAF6" transform="translate(186,175)"/>
<path d="M0 0 C1.9375 0.6875 1.9375 0.6875 4 2 C4.75 4.625 4.75 4.625 5 7 C4.01 7 3.02 7 2 7 C0.5393715 4.35261084 0 3.10551666 0 0 Z " fill="#E6ECF0" transform="translate(391,173)"/>
<path d="M0 0 C2.97 0.33 5.94 0.66 9 1 C9 1.99 9 2.98 9 4 C9.99 4 10.98 4 12 4 C12.33 4.99 12.66 5.98 13 7 C8.50202887 5.31326082 4.27113698 3.18326108 0 1 C0 0.67 0 0.34 0 0 Z " fill="#E0F8F7" transform="translate(104,7)"/>
<path d="M0 0 C0.99 0.66 1.98 1.32 3 2 C1.68 4.64 0.36 7.28 -1 10 C-1.66 10 -2.32 10 -3 10 C-2.69201674 8.51988629 -2.378482 7.04092675 -2.0625 5.5625 C-1.88847656 4.73878906 -1.71445312 3.91507813 -1.53515625 3.06640625 C-1 1 -1 1 0 0 Z " fill="#182835" transform="translate(860,225)"/>
<path d="M0 0 C0.33 0 0.66 0 1 0 C1.625 2.875 1.625 2.875 2 6 C0.04783565 7.95216435 -1.53199953 8.84826645 -4 10 C-2.8905928 6.51329166 -1.73662334 3.22515763 0 0 Z " fill="#DDE5E9" transform="translate(869,213)"/>
<path d="M0 0 C-0.75 1.9375 -0.75 1.9375 -2 4 C-4.125 4.75 -4.125 4.75 -6 5 C-6 4.01 -6 3.02 -6 2 C-6.66 1.34 -7.32 0.68 -8 0 C-4.71303767 -0.79953138 -3.28976808 -1.09658936 0 0 Z " fill="#152A3A" transform="translate(470,170)"/>
<path d="M0 0 C1.32 0.33 2.64 0.66 4 1 C2.73461631 1.84158536 1.46246221 2.67299748 0.1875 3.5 C-0.87404297 4.19609375 -0.87404297 4.19609375 -1.95703125 4.90625 C-4 6 -4 6 -7 6 C-7 5.34 -7 4.68 -7 4 C-4 2 -4 2 0 2 C0 1.34 0 0.68 0 0 Z " fill="#7ED5C6" transform="translate(139,115)"/>
<path d="M0 0 C0.33 0.66 0.66 1.32 1 2 C1.66 2.33 2.32 2.66 3 3 C1.02579865 5.52259061 0.03254358 5.9929808 -3.1875 6.6875 C-4.5796875 6.8421875 -4.5796875 6.8421875 -6 7 C-4.02 4.69 -2.04 2.38 0 0 Z " fill="#1A2C3A" transform="translate(290,88)"/>
<path d="M0 0 C1.485 0.99 1.485 0.99 3 2 C2.67 4.31 2.34 6.62 2 9 C1.34 9 0.68 9 0 9 C-1.125 2.25 -1.125 2.25 0 0 Z " fill="#ECEFF1" transform="translate(1234,74)"/>
<path d="M0 0 C2.6875 0.3125 2.6875 0.3125 5 1 C2.87219421 3.34058637 0.88437779 4.70700306 -2 6 C-2.33 5.01 -2.66 4.02 -3 3 C-1.8125 1.4375 -1.8125 1.4375 0 0 Z " fill="#1A2C38" transform="translate(1503,73)"/>
<path d="M0 0 C3.26460973 1.80412643 4.88929795 2.83394693 7 6 C6.01 6.33 5.02 6.66 4 7 C4 6.34 4 5.68 4 5 C2.68 5 1.36 5 0 5 C0 3.35 0 1.7 0 0 Z " fill="#1C2F3C" transform="translate(505,56)"/>
<path d="M0 0 C1.32 0.33 2.64 0.66 4 1 C2.71186658 1.83878455 1.41936744 2.67086783 0.125 3.5 C-0.59429688 3.9640625 -1.31359375 4.428125 -2.0546875 4.90625 C-4 6 -4 6 -6 6 C-5.67 4.68 -5.34 3.36 -5 2 C-3.35 2 -1.7 2 0 2 C0 1.34 0 0.68 0 0 Z " fill="#DEF9F8" transform="translate(17,51)"/>
<path d="M0 0 C1.22589844 0.01353516 1.22589844 0.01353516 2.4765625 0.02734375 C3.41628906 0.04474609 3.41628906 0.04474609 4.375 0.0625 C4.375 0.3925 4.375 0.7225 4.375 1.0625 C0.375 2.39583333 -3.625 3.72916667 -7.625 5.0625 C-7.25 3.125 -7.25 3.125 -6.625 1.0625 C-4.21954362 -0.14022819 -2.67503047 -0.03821472 0 0 Z " fill="#364650" transform="translate(226.625,41.9375)"/>
<path d="M0 0 C2.97 0 5.94 0 9 0 C9.66 1.32 10.32 2.64 11 4 C8.04725901 4 6.50941597 3.56108169 3.8125 2.5 C3.09707031 2.2215625 2.38164063 1.943125 1.64453125 1.65625 C1.10183594 1.4396875 0.55914063 1.223125 0 1 C0 0.67 0 0.34 0 0 Z " fill="#E5EDF2" transform="translate(1004,0)"/>
<path d="M0 0 C1.98 0.66 3.96 1.32 6 2 C5.67 2.66 5.34 3.32 5 4 C4.01 4.33 3.02 4.66 2 5 C1.34 4.34 0.68 3.68 0 3 C0 2.01 0 1.02 0 0 Z " fill="#1D2F3B" transform="translate(1372,195)"/>
<path d="M0 0 C2.05078125 0.03255208 4.1015625 0.06510417 6.15234375 0.09765625 C5.49234375 1.41765625 4.83234375 2.73765625 4.15234375 4.09765625 C-0.59765625 3.34765625 -0.59765625 3.34765625 -2.84765625 1.09765625 C-1.84765625 0.09765625 -1.84765625 0.09765625 0 0 Z " fill="#E9EFF3" transform="translate(1142.84765625,162.90234375)"/>
<path d="M0 0 C1.32 0 2.64 0 4 0 C6.76223278 2.76223278 6.57856291 5.20706617 7 9 C4.04070881 6.24479785 1.96318174 3.53372712 0 0 Z " fill="#DFFAF6" transform="translate(190,139)"/>
<path d="M0 0 C0.99 1.32 1.98 2.64 3 4 C1.68 5.65 0.36 7.3 -1 9 C-1.99 8.67 -2.98 8.34 -4 8 C-2.68 5.36 -1.36 2.72 0 0 Z " fill="#E8EEF2" transform="translate(937,80)"/>
<path d="M0 0 C4.455 2.97 4.455 2.97 9 6 C7.02 6.99 7.02 6.99 5 8 C2.74754119 5.31158141 1.11786042 3.35358125 0 0 Z " fill="#1B2C38" transform="translate(1390,47)"/>
<path d="M0 0 C2.97 0.33 5.94 0.66 9 1 C8.01 2.485 8.01 2.485 7 4 C6.34 3.67 5.68 3.34 5 3 C3.33805547 2.64386903 1.671549 2.30791692 0 2 C0 1.34 0 0.68 0 0 Z " fill="#213440" transform="translate(468,40)"/>
<path d="M0 0 C1.6875 0.25 1.6875 0.25 4 1 C5.2375 1.350625 6.475 1.70125 7.75 2.0625 C8.8225 2.371875 9.895 2.68125 11 3 C11 3.33 11 3.66 11 4 C6.07872966 4.16682272 2.49656104 4.24828052 -2 2 C-1.34 1.34 -0.68 0.68 0 0 Z " fill="#293743" transform="translate(218,194)"/>
<path d="M0 0 C3.63 1.32 7.26 2.64 11 4 C10.01 4.66 9.02 5.32 8 6 C4.3125 5.125 4.3125 5.125 1 4 C0.67 2.68 0.34 1.36 0 0 Z " fill="#E5ECF1" transform="translate(583,192)"/>
<path d="M0 0 C0.99 0 1.98 0 3 0 C3 2.64 3 5.28 3 8 C2.01 8 1.02 8 0 8 C0 5.36 0 2.72 0 0 Z " fill="#2B3C46" transform="translate(209,179)"/>
<path d="M0 0 C1.32 0.66 2.64 1.32 4 2 C3.67 3.98 3.34 5.96 3 8 C1 7 1 7 -0.125 3.9375 C-0.41375 2.968125 -0.7025 1.99875 -1 1 C-0.67 0.67 -0.34 0.34 0 0 Z " fill="#192D3B" transform="translate(788,66)"/>
<path d="M0 0 C0.88336837 2.4667645 1.1312406 3.63859372 0.22265625 6.140625 C-0.16019531 6.83671875 -0.54304688 7.5328125 -0.9375 8.25 C-1.31777344 8.95640625 -1.69804687 9.6628125 -2.08984375 10.390625 C-2.39019531 10.92171875 -2.69054687 11.4528125 -3 12 C-3.88336837 9.5332355 -4.1312406 8.36140628 -3.22265625 5.859375 C-2.83980469 5.16328125 -2.45695312 4.4671875 -2.0625 3.75 C-1.68222656 3.04359375 -1.30195313 2.3371875 -0.91015625 1.609375 C-0.60980469 1.07828125 -0.30945313 0.5471875 0 0 Z " fill="#1E2E39" transform="translate(357,55)"/>
<path d="M0 0 C0.99 0 1.98 0 3 0 C2.45912682 3.78611227 0.88277668 5.55400767 -2 8 C-2.66 8 -3.32 8 -4 8 C-2.66666667 5.33333333 -1.33333333 2.66666667 0 0 Z " fill="#DAE3E7" transform="translate(356,62)"/>
<path d="M0 0 C0.66 1.32 1.32 2.64 2 4 C0.35 4.65 -1.3 6.3 -3 8 C-3.33 7.01 -3.66 6.02 -4 5 C-2.0625 2.3125 -2.0625 2.3125 0 0 Z " fill="#EDF1F3" transform="translate(506,185)"/>
<path d="M0 0 C-0.928125 0.4021875 -0.928125 0.4021875 -1.875 0.8125 C-4.2995233 1.95556848 -4.2995233 1.95556848 -6 5 C-6.99 4.67 -7.98 4.34 -9 4 C-8.67 3.01 -8.34 2.02 -8 1 C-2.59770115 -1.29885057 -2.59770115 -1.29885057 0 0 Z " fill="#172B39" transform="translate(480,167)"/>
<path d="M0 0 C1.5625 1.25 1.5625 1.25 3 3 C2.6875 5.1875 2.6875 5.1875 2 7 C0.68 6.01 -0.64 5.02 -2 4 C-1.34 2.68 -0.68 1.36 0 0 Z " fill="#142835" transform="translate(1289,168)"/>
<path d="M0 0 C0.99 0.99 1.98 1.98 3 3 C2.67 3.66 2.34 4.32 2 5 C2 5.66 2 6.32 2 7 C1.01 7.33 0.02 7.66 -1 8 C-1.625 5.6875 -1.625 5.6875 -2 3 C-1.34 2.01 -0.68 1.02 0 0 Z " fill="#ECF1F3" transform="translate(379,151)"/>
<path d="M0 0 C0.66 0 1.32 0 2 0 C1.65120368 3.25543229 0.97866739 4.01873107 -1.5625 6.25 C-2.366875 6.8275 -3.17125 7.405 -4 8 C-3.40312566 4.65750371 -2.26396123 2.53563658 0 0 Z " fill="#233441" transform="translate(339,79)"/>
<path d="M0 0 C3.08089673 2.77280706 4.68775452 5.06326356 6 9 C4.68 8.34 3.36 7.68 2 7 C2 6.01 2 5.02 2 4 C1.34 4 0.68 4 0 4 C0 2.68 0 1.36 0 0 Z " fill="#1A2C39" transform="translate(1225,67)"/>
<path d="M0 0 C0.66 0.99 1.32 1.98 2 3 C0.71937515 4.7074998 -0.61767557 6.37373596 -2 8 C-2.66 8 -3.32 8 -4 8 C-4 8.66 -4 9.32 -4 10 C-4.66 9.67 -5.32 9.34 -6 9 C-4.02 6.03 -2.04 3.06 0 0 Z " fill="#1F313C" transform="translate(560,66)"/>
<path d="M0 0 C0.66 0.33 1.32 0.66 2 1 C-1.44615385 6.78461538 -1.44615385 6.78461538 -4.25 7.875 C-4.8275 7.91625 -5.405 7.9575 -6 8 C-4.55746343 4.63408134 -2.66735273 2.48952921 0 0 Z " fill="#7DD6C7" transform="translate(9,58)"/>
<path d="M0 0 C2.64 0.33 5.28 0.66 8 1 C6.68 1.99 5.36 2.98 4 4 C2.68 3.34 1.36 2.68 0 2 C0 1.34 0 0.68 0 0 Z M-1 3 C1 4 1 4 1 4 Z " fill="#1D303C" transform="translate(477,42)"/>
<path d="M0 0 C2.97 1.65 5.94 3.3 9 5 C3.86057616 6.28485596 2.62164416 5.22194431 -2 3 C-1.34 2.67 -0.68 2.34 0 2 C0 1.34 0 0.68 0 0 Z " fill="#7AD5C6" transform="translate(142,28)"/>
<path d="M0 0 C0.33 0.99 0.66 1.98 1 3 C-0.65 4.65 -2.3 6.3 -4 8 C-3.50168276 4.31245243 -2.89932357 2.39509338 0 0 Z " fill="#182833" transform="translate(855,238)"/>
<path d="M0 0 C0.66 0 1.32 0 2 0 C1.75 1.875 1.75 1.875 1 4 C-1.0625 5.25 -1.0625 5.25 -3 6 C-3.66 5.01 -4.32 4.02 -5 3 C-3.35 2.67 -1.7 2.34 0 2 C0 1.34 0 0.68 0 0 Z " fill="#1D2F3A" transform="translate(671,185)"/>
<path d="M0 0 C0.33 0.99 0.66 1.98 1 3 C-1.31 4.98 -3.62 6.96 -6 9 C-6 6 -6 6 -3.5625 3.375 C-2.716875 2.59125 -1.87125 1.8075 -1 1 C-0.67 0.67 -0.34 0.34 0 0 Z " fill="#152631" transform="translate(1223,176)"/>
<path d="M0 0 C1.64936913 0.78427352 3.29441127 1.57765259 4.9375 2.375 C5.85402344 2.81585938 6.77054688 3.25671875 7.71484375 3.7109375 C10 5 10 5 11 7 C3.16901408 5.04225352 3.16901408 5.04225352 0 2 C0 1.34 0 0.68 0 0 Z " fill="#81D3C5" transform="translate(40,149)"/>
<path d="M0 0 C0.66 0.33 1.32 0.66 2 1 C0.68 3.31 -0.64 5.62 -2 8 C-2.66 6.68 -3.32 5.36 -4 4 C-3.34 4 -2.68 4 -2 4 C-2 3.01 -2 2.02 -2 1 C-1.34 0.67 -0.68 0.34 0 0 Z " fill="#E2ECF2" transform="translate(868,137)"/>
<path d="M0 0 C1.65 0 3.3 0 5 0 C5.66 1.32 6.32 2.64 7 4 C5.35 4.33 3.7 4.66 2 5 C1.34 3.35 0.68 1.7 0 0 Z " fill="#192D3B" transform="translate(823,137)"/>
<path d="M0 0 C0.66 0 1.32 0 2 0 C2.33 2.97 2.66 5.94 3 9 C1.10786631 6.61426621 -0.02391783 4.92824652 -1 2 C-0.67 1.34 -0.34 0.68 0 0 Z " fill="#E6EDF2" transform="translate(836,83)"/>
<path d="M0 0 C1.65 0 3.3 0 5 0 C4.67 0.99 4.34 1.98 4 3 C1.4375 4.1875 1.4375 4.1875 -1 5 C-0.67 3.35 -0.34 1.7 0 0 Z " fill="#73D6C4" transform="translate(41,83)"/>
<path d="M0 0 C0.99 1.32 1.98 2.64 3 4 C1 5 -1 6 -3 7 C-1.125 1.125 -1.125 1.125 0 0 Z " fill="#182B37" transform="translate(900,78)"/>
<path d="M0 0 C0.99 0 1.98 0 3 0 C2.67 1.65 2.34 3.3 2 5 C0.02 5.33 -1.96 5.66 -4 6 C-3.34 5.195625 -2.68 4.39125 -2 3.5625 C0.10254514 1.41038085 0.10254514 1.41038085 0 0 Z " fill="#7CD8C7" transform="translate(138,72)"/>
<path d="M0 0 C0.66 0.66 1.32 1.32 2 2 C-0.97 4.475 -0.97 4.475 -4 7 C-4.66 6.67 -5.32 6.34 -6 6 C-3.375 1.125 -3.375 1.125 0 0 Z " fill="#E4EAED" transform="translate(1060,60)"/>
<path d="M0 0 C-1.28813342 0.83878455 -2.58063256 1.67086783 -3.875 2.5 C-4.59429687 2.9640625 -5.31359375 3.428125 -6.0546875 3.90625 C-8 5 -8 5 -10 5 C-10 4.01 -10 3.02 -10 2 C-8.71211992 1.46987262 -7.41953322 0.9511671 -6.125 0.4375 C-5.40570313 0.14746094 -4.68640625 -0.14257812 -3.9453125 -0.44140625 C-2 -1 -2 -1 0 0 Z " fill="#DEFBF8" transform="translate(70,23)"/>
<path d="M0 0 C3.3 0 6.6 0 10 0 C9.67 1.32 10.32 2.64 11 4 C8.04725901 4 6.50941597 3.56108169 3.8125 2.5 C3.09707031 2.2215625 2.38164063 1.943125 1.64453125 1.65625 C1.10183594 1.4396875 0.55914063 1.223125 0 1 C0 0.67 0 0.34 0 0 Z " fill="#E1EAEF" transform="translate(1468,0)"/>
<path d="M0 0 C1.32 0 2.64 0 4 0 C6.76223278 2.76223278 6.57856291 5.20706617 7 9 C4.04070881 6.24479785 1.96318174 3.53372712 0 0 Z " fill="#DFFAF6" transform="translate(190,139)"/>
<path d="M0 0 C2.0625 1.625 2.0625 1.625 4 4 C3.75 7.25 3.75 7.25 3 10 C1.11608215 6.73454239 0.50712033 3.71888239 0 0 Z " fill="#23323D" transform="translate(985,163)"/>
<path d="M0 0 C1.9451 2.91765 2.45276317 4.62537285 3 8 C1.68 7.67 0.36 7.34 -1 7 C-0.67 4.69 -0.34 2.38 0 0 Z " fill="#22343F" transform="translate(411,134)"/>
<path d="M0 0 C0.33 0.99 0.66 1.98 1 3 C-0.65 3.33 -2.3 3.66 -4 4 C-4 4.66 -4 5.32 -4 6 C-5.32 5.67 -6.64 5.34 -8 5 C-4.04 2.525 -4.04 2.525 0 0 Z " fill="#E4F8F7" transform="translate(188,89)"/>
<path d="M0 0 C0.33 1.32 0.66 2.64 1 4 C0.01 4.66 -0.98 5.32 -2 6 C-2.33 6.99 -2.66 7.98 -3 9 C-3.66 9 -4.32 9 -5 9 C-3.7508258 5.54074837 -2.32472205 2.85306797 0 0 Z " fill="#D7E1E6" transform="translate(1317,85)"/>
<path d="M0 0 C0.66 0.99 1.32 1.98 2 3 C0.35 4.65 -1.3 6.3 -3 8 C-3.33 7.01 -3.66 6.02 -4 5 C-2.0625 2.3125 -2.0625 2.3125 0 0 Z " fill="#122634" transform="translate(589,80)"/>
<path d="M0 0 C0.99 0.33 1.98 0.66 3 1 C1.38405168 3.04119788 -0.2856382 5.04072937 -2 7 C-2.66 7 -3.32 7 -4 7 C-2.92598892 4.08482708 -2.22189824 2.22189824 0 0 Z " fill="#E5EDF1" transform="translate(391,65)"/>
<path d="M0 0 C0 2.83967231 -0.40267181 5.23735711 -1 8 C-2.65 8 -4.3 8 -6 8 C-4.02 5.36 -2.04 2.72 0 0 Z " fill="#1F313D" transform="translate(397,61)"/>
<path d="M0 0 C0.66 0 1.32 0 2 0 C0.75023244 3.65316671 0.32901247 4.78065836 -3 7 C-3.33 6.34 -3.66 5.68 -4 5 C-2.71937515 3.2925002 -1.38232443 1.62626404 0 0 Z " fill="#DEE6EA" transform="translate(1101,64)"/>
<path d="M0 0 C2.31 0.66 4.62 1.32 7 2 C6.67 3.32 6.34 4.64 6 6 C3.97945196 4.35830472 1.97956942 2.69088222 0 1 C0 0.67 0 0.34 0 0 Z " fill="#D7E1E7" transform="translate(671,53)"/>
<path d="M0 0 C3.96 1.98 3.96 1.98 8 4 C8 4.66 8 5.32 8 6 C6.68 6 5.36 6 4 6 C4 5.01 4 4.02 4 3 C2.68 2.67 1.36 2.34 0 2 C0 1.34 0 0.68 0 0 Z " fill="#79D5C4" transform="translate(120,16)"/>
<path d="M0 0 C1.125 3.75 1.125 3.75 0 6 C-1.32 6 -2.64 6 -4 6 C-2.84826645 3.53199953 -1.95216435 1.95216435 0 0 Z " fill="#E3E8EF" transform="translate(267,161)"/>
<path d="M0 0 C1.32 1.32 2.64 2.64 4 4 C2.02 4.99 2.02 4.99 0 6 C-0.38218767 4.34385343 -0.71395102 2.67542976 -1 1 C-0.67 0.67 -0.34 0.34 0 0 Z " fill="#172A36" transform="translate(1090,152)"/>
<path d="M0 0 C0.33 0 0.66 0 1 0 C1.33 3.63 1.66 7.26 2 11 C1.01 10.34 0.02 9.68 -1 9 C-0.67 6.03 -0.34 3.06 0 0 Z " fill="#C7CED5" transform="translate(542,130)"/>
<path d="M0 0 C0.93065133 2.60582371 1.14917407 3.64198224 0.0625 6.25 C-0.4634375 7.11625 -0.4634375 7.11625 -1 8 C-1.66 8 -2.32 8 -3 8 C-2.74438677 5.6568787 -2.40729228 3.32156597 -2 1 C-1.34 0.67 -0.68 0.34 0 0 Z " fill="#152633" transform="translate(925,100)"/>
<path d="M0 0 C-5.2734375 3.22265625 -5.2734375 3.22265625 -7 4 C-7.66 3.67 -8.32 3.34 -9 3 C-7.01532024 -0.96935951 -3.9567243 -1.41311582 0 0 Z " fill="#E4FAFA" transform="translate(103,96)"/>
<path d="M0 0 C0.66 0.33 1.32 0.66 2 1 C0.35 2.65 -1.3 4.3 -3 6 C-3 5.34 -3 4.68 -3 4 C-3.66 3.67 -4.32 3.34 -5 3 C-2.625 1.4375 -2.625 1.4375 0 0 Z " fill="#E5ECF1" transform="translate(1505,76)"/>
<path d="M0 0 C1.98 0.66 3.96 1.32 6 2 C5.67 2.66 5.34 3.32 5 4 C4.01 4.33 3.02 4.66 2 5 C1.34 4.34 0.68 3.68 0 3 C0 2.01 0 1.02 0 0 Z " fill="#E7EFF3" transform="translate(1184,73)"/>
<path d="M0 0 C3 3.75 3 3.75 3 6 C2.34 6 1.68 6 1 6 C1 6.66 1 7.32 1 8 C0.34 7.67 -0.32 7.34 -1 7 C-1.04254356 5.00045254 -1.04080783 2.99958364 -1 1 C-0.67 0.67 -0.34 0.34 0 0 Z " fill="#1F323E" transform="translate(1590,71)"/>
</svg>
